<svg viewBox="0 0 24 24" fill="none" xmlns="http://www.w3.org/2000/svg">
<g id="Icon">
<path id="Union" d="M11.9199 3C17.1327 3 21.3602 7.22164 21.3604 12.4297C21.3604 17.6379 17.1337 21.8604 11.9199 21.8604C7.66353 21.8602 4.0667 19.0468 2.88672 15.1797L6.45996 16.6523C6.55028 17.0617 6.73778 17.444 7.00684 17.7656C7.27597 18.0873 7.61953 18.3395 8.00684 18.501C8.41026 18.6688 8.84948 18.7335 9.28418 18.6885C9.71891 18.6434 10.1358 18.4903 10.4961 18.2432C10.8564 17.996 11.1493 17.6625 11.3477 17.2734C11.5459 16.8845 11.6437 16.452 11.6318 16.0156L14.9365 13.6562C15.414 13.6711 15.8899 13.5909 16.3359 13.4199C16.7819 13.2489 17.1893 12.9903 17.5342 12.6602C17.8791 12.33 18.1548 11.9339 18.3447 11.4961C18.5346 11.0584 18.6352 10.5873 18.6406 10.1104C18.646 9.6333 18.5559 9.15971 18.376 8.71777C18.196 8.27579 17.9291 7.874 17.5918 7.53613C17.2545 7.19828 16.8531 6.93101 16.4111 6.75C15.9691 6.56899 15.4953 6.47732 15.0176 6.48145C14.0664 6.48321 13.1546 6.86181 12.4824 7.53418C11.8103 8.2066 11.433 9.11817 11.4326 10.0684L11.4336 10.1152L9.12305 13.4678C8.57504 13.4434 8.03354 13.593 7.57617 13.8955L2.50391 11.8096V11.8105L2.5 11.8037C2.82291 6.88805 6.91687 3.0002 11.9199 3ZM8.30273 14.1973C8.78384 14.0138 9.31768 14.0217 9.79297 14.2197C10.0382 14.3211 10.2611 14.4702 10.4482 14.6582C10.6353 14.8462 10.7828 15.0699 10.8828 15.3154C11.0886 15.8133 11.0876 16.3644 10.8799 16.8613C10.6741 17.3555 10.2804 17.7479 9.78516 17.9521C9.28985 18.1564 8.73315 18.1555 8.23828 17.9502C7.78165 17.7589 7.41158 17.4058 7.19922 16.959L8.36621 17.4424C8.54629 17.5174 8.73947 17.5562 8.93457 17.5566C9.12979 17.5571 9.3234 17.5186 9.50391 17.4443C9.68419 17.3701 9.84815 17.2614 9.98633 17.124C10.1246 16.9864 10.2346 16.8225 10.3096 16.6426C10.4615 16.2785 10.4626 15.8687 10.3125 15.5039C10.1624 15.1394 9.87372 14.8494 9.50977 14.6973L8.30273 14.1973ZM15.0195 7.67676C15.6534 7.67826 16.2611 7.93085 16.709 8.37891C17.1568 8.82691 17.4086 9.43432 17.4092 10.0674C17.4092 10.7007 17.157 11.3086 16.709 11.7568C16.261 12.2049 15.6535 12.457 15.0195 12.458C14.3965 12.4405 13.8046 12.1808 13.3701 11.7344C12.9358 11.288 12.6924 10.6898 12.6924 10.0674C12.6925 9.44489 12.9357 8.8467 13.3701 8.40039C13.8046 7.954 14.3965 7.69424 15.0195 7.67676ZM15.0234 8.26855C14.0343 8.26855 13.2297 9.07263 13.2295 10.0645C13.2295 11.0555 14.0332 11.8604 15.0234 11.8604C15.2593 11.8602 15.4931 11.8139 15.7109 11.7236C15.9287 11.6333 16.1264 11.5007 16.293 11.334C16.4595 11.1673 16.5916 10.9696 16.6816 10.752C16.7717 10.5342 16.8186 10.3001 16.8184 10.0645C16.8181 9.07267 16.0144 8.26862 15.0234 8.26855Z" fill="var(--fill-0, white)"/>
</g>
</svg>
