<svg viewBox="0 0 32 32" fill="none" xmlns="http://www.w3.org/2000/svg">
<g id="Frame" clip-path="url(#clip0_0_5)">
<g id="Vector">
</g>
<path id="Vector_2" d="M28 4V10.6667L13.3333 22.6667L8 28L4 24L9.33333 18.6667L21.3333 4H28Z" fill="url(#paint0_linear_0_5)"/>
<path id="Vector (Stroke)" d="M5.95964 16.6263C6.35016 16.2358 6.98317 16.2358 7.3737 16.6263L15.3737 24.6263C15.7642 25.0168 15.7642 25.6498 15.3737 26.0404C14.9832 26.4309 14.3502 26.4309 13.9596 26.0404L5.95964 18.0404C5.56911 17.6498 5.56911 17.0168 5.95964 16.6263Z" fill="url(#paint1_linear_0_5)"/>
<path id="Vector_3" d="M19.0933 23.0933L24 28L28 24L23.5133 19.5133" fill="url(#paint2_linear_0_5)"/>
<path id="Vector_4" d="M13.3333 7.33333L10.6667 4H4V10.6667L8 14" fill="url(#paint3_linear_0_5)"/>
</g>
<defs>
<linearGradient id="paint0_linear_0_5" x1="16" y1="4" x2="16" y2="28" gradientUnits="userSpaceOnUse">
<stop stop-color="#B2FF00"/>
<stop offset="1" stop-color="#6B9900"/>
</linearGradient>
<linearGradient id="paint1_linear_0_5" x1="10.6667" y1="16.3334" x2="10.6667" y2="26.3333" gradientUnits="userSpaceOnUse">
<stop stop-color="#B2FF00"/>
<stop offset="1" stop-color="#6B9900"/>
</linearGradient>
<linearGradient id="paint2_linear_0_5" x1="23.5467" y1="19.5133" x2="23.5467" y2="28" gradientUnits="userSpaceOnUse">
<stop stop-color="#B2FF00"/>
<stop offset="1" stop-color="#6B9900"/>
</linearGradient>
<linearGradient id="paint3_linear_0_5" x1="8.66667" y1="4" x2="8.66667" y2="14" gradientUnits="userSpaceOnUse">
<stop stop-color="#B2FF00"/>
<stop offset="1" stop-color="#6B9900"/>
</linearGradient>
<clipPath id="clip0_0_5">
<rect width="32" height="32" fill="white"/>
</clipPath>
</defs>
</svg>
